# xmcd
#
# Track frame offsets:
#	150
#	15228
#	30188
#	43266
#	56885
#	69565
#	84820
#	100458
#	116717
#	128449
#	139710
#	152491
#	166651
#	178935
#	190179
#	200745
#
# Disc length: 2985 seconds
#
# Revision: 1
# Processed by: cddbd v1.5.2PL0 Copyright (c) Steve Scherf et al.
# Submitted via: audiograbber 1.83.01
#
DISCID=cd0ba710
DTITLE=Various Artist - Classic Country - Disc 3 of 3
DYEAR=1900
DGENRE=Country
TTITLE0=Hank Snow - I've Been Everywhere
TTITLE1=Claude King - Wolverton Mountain
TTITLE2=Patsy Cline - I Fall To Pieces
TTITLE3=Red Foley - Chatanoogie Shoe Shine Boy
TTITLE4=Johnny Cash - Folsome Prison Blues
TTITLE5=Jeannie C. Riley - Harper Valley P. T. A.
TTITLE6=Merle Haggard - Silver Wings
TTITLE7=Johnny Cash - A Boy Names Sue
TTITLE8=Connie Smith - Once A Day
TTITLE9=Cowboy Copas - Alabam
TTITLE10=George Jones - She Thinks I Still Care
TTITLE11=Wanda Jackson - The Window Up Above
TTITLE12=Johnny Cash - Ring Of Fire
TTITLE13=Buck Owens - I've Got A Tiger By The Tail
TTITLE14=Patsy Cline - Blue Moon Of Kentucky
TTITLE15=Marty Robbins - El Paso
EXTD=
EXTT0=
EXTT1=
EXTT2=
EXTT3=
EXTT4=
EXTT5=
EXTT6=
EXTT7=
EXTT8=
EXTT9=
EXTT10=
EXTT11=
EXTT12=
EXTT13=
EXTT14=
EXTT15=
PLAYORDER=
